<?xml version="1.0" standalone="no"?>
<!DOCTYPE svg PUBLIC "-//W3C//DTD SVG 20010904//EN"
 "http://www.w3.org/TR/2001/REC-SVG-20010904/DTD/svg10.dtd">
<svg version="1.0" xmlns="http://www.w3.org/2000/svg"
 width="260.000000pt" height="260.000000pt" viewBox="0 0 260.000000 260.000000"
 preserveAspectRatio="xMidYMid meet">
<metadata>
Created by potrace 1.11, written by Peter Selinger 2001-2013
</metadata>
<g transform="translate(0.000000,260.000000) scale(0.100000,-0.100000)"
fill="#000000" stroke="none">
<path d="M1217 1773 c-4 -3 -2 -12 4 -20 9 -10 8 -13 0 -13 -7 0 -9 -4 -6 -10
3 -6 -1 -7 -9 -4 -9 3 -16 10 -16 16 0 5 5 6 12 2 7 -4 8 -3 4 5 -4 6 -13 8
-19 4 -6 -4 -23 -7 -37 -8 -14 -1 -35 -7 -48 -14 -12 -6 -28 -9 -35 -5 -9 5
-9 4 -1 -5 9 -10 17 -10 34 -1 30 16 70 22 70 11 0 -5 -8 -8 -17 -6 -10 1 -27
-2 -38 -8 -11 -6 -30 -11 -41 -13 -12 -1 -33 -5 -45 -9 -21 -7 -22 -6 -11 8 9
10 10 17 2 22 -6 4 -9 1 -8 -7 2 -7 -3 -12 -10 -10 -8 1 -11 -2 -6 -9 5 -9 2
-10 -10 -6 -14 6 -16 3 -11 -16 7 -22 7 -22 -8 -2 -8 11 -14 22 -12 26 2 3 -2
6 -10 6 -8 0 -12 -4 -9 -8 2 -4 -11 -7 -30 -6 -19 1 -32 5 -29 10 2 4 9 4 15
1 6 -4 8 -2 5 3 -7 11 -61 8 -80 -4 -16 -10 -38 -13 -33 -5 2 4 -3 14 -12 22
-14 13 -15 12 -9 -3 3 -9 3 -17 -1 -18 -43 -6 -89 -4 -100 4 -10 8 -11 4 -2
-18 6 -15 9 -30 6 -32 -2 -3 -7 5 -11 16 -3 12 -11 19 -16 15 -6 -3 -5 -12 3
-21 12 -15 11 -15 -9 -2 -13 8 -23 17 -23 22 0 4 4 6 8 3 5 -3 9 1 9 9 0 8 -4
12 -8 9 -4 -2 -12 4 -18 13 -6 10 -11 13 -11 8 0 -6 5 -16 12 -23 9 -9 9 -12
1 -12 -7 0 -15 9 -18 21 -4 12 -12 18 -21 15 -13 -5 -16 0 -13 22 1 4 5 6 11
4 5 -1 7 2 3 8 -9 15 -35 -7 -29 -24 4 -9 -8 -12 -41 -11 -33 2 -51 -3 -67
-18 l-23 -19 22 6 c17 6 22 4 18 -6 -3 -8 -17 -15 -30 -16 -47 -3 -54 -5 -49
-14 8 -13 -6 -29 -19 -21 -18 11 -37 12 -37 2 0 -6 -8 -6 -19 1 -14 7 -22 7
-26 -1 -4 -6 -14 -8 -22 -4 -13 4 -14 3 -3 -10 7 -8 17 -12 24 -8 6 4 4 -2 -4
-12 -8 -10 -10 -16 -3 -12 6 4 15 2 19 -4 4 -8 3 -9 -4 -5 -7 4 -12 2 -12 -4
0 -6 -6 -8 -12 -4 -8 4 -10 3 -5 -2 5 -5 14 -9 20 -9 12 0 18 -43 6 -51 -4 -2
-6 -13 -4 -24 5 -24 1 -25 -16 -3 -12 15 -12 16 1 8 8 -4 12 -5 8 0 -4 4 -3
14 3 22 9 10 8 13 -1 13 -9 0 -9 4 1 18 12 15 12 16 -2 5 -9 -7 -20 -9 -25 -5
-4 4 -2 -1 5 -10 14 -19 6 -42 -11 -32 -5 4 -2 -6 7 -20 13 -20 14 -26 4 -24
-7 2 -13 -2 -14 -9 0 -6 -4 -15 -9 -20 -5 -4 -7 -4 -3 2 3 6 -6 16 -20 22 -25
12 -25 12 -7 -8 17 -19 17 -20 -1 -13 -10 4 -16 3 -12 -2 7 -11 -81 -10 -91 1
-4 5 0 4 8 0 13 -8 13 -7 1 8 -15 19 -26 23 -15 5 5 -7 2 -9 -7 -6 -11 4 -14
-3 -13 -28 1 -24 -2 -31 -12 -27 -8 3 -14 1 -14 -5 0 -6 6 -12 13 -15 9 -3 9
-9 -1 -27 -12 -20 -12 -22 0 -17 12 4 14 -4 10 -40 -2 -26 0 -43 5 -40 5 3 10
-4 10 -15 1 -12 8 -25 15 -31 10 -6 9 -7 -4 -4 -9 3 -22 -2 -30 -11 -12 -15
-11 -16 5 -3 11 9 17 10 17 2 0 -6 5 -10 12 -8 7 1 12 -4 13 -11 0 -7 7 -17
15 -23 11 -8 9 -9 -10 -4 -23 6 -24 5 -5 -7 11 -7 25 -13 30 -13 6 0 10 -4 10
-10 1 -5 6 -20 13 -32 10 -19 9 -25 -10 -44 -24 -23 -7 -17 27 10 13 10 16 11
8 1 -16 -18 -17 -34 -1 -24 7 4 8 3 4 -5 -4 -6 -12 -9 -17 -6 -5 4 -9 -1 -9
-10 0 -9 4 -13 10 -10 5 3 10 2 10 -4 0 -5 -6 -12 -12 -14 -10 -4 -10 -6 0 -6
6 -1 12 -5 12 -11 0 -5 -6 -7 -14 -4 -11 4 -13 0 -9 -14 3 -14 -2 -24 -16 -31
-27 -15 -27 -31 0 -31 13 0 18 -4 13 -12 -5 -9 -2 -9 9 1 13 10 17 10 17 1 0
-9 4 -9 17 1 15 12 16 12 10 -3 -4 -11 -2 -17 6 -15 7 1 11 -4 9 -11 -1 -8 2
-11 8 -7 8 5 8 11 1 19 -6 7 -8 16 -4 20 4 4 13 -4 21 -16 12 -21 13 -22 9 -2
-3 13 1 21 10 21 9 0 11 -7 7 -21 -3 -14 -2 -17 4 -8 11 16 68 9 64 -7 -1 -7
2 -10 8 -6 8 5 8 11 1 19 -19 23 1 26 21 3 l19 -22 -10 22 c-10 20 -9 21 15
17 19 -3 24 -1 18 8 -6 11 -5 11 8 0 13 -10 19 -10 32 3 9 9 16 12 16 6 0 -6
4 -11 10 -11 5 0 7 7 4 15 -5 11 -2 13 11 9 10 -4 21 -1 26 7 5 9 9 9 9 2 0
-9 27 -11 38 -3 6 6 28 6 37 0 9 -5 51 -6 58 0 11 9 34 5 35 -6 1 -8 3 -21 4
-29 1 -8 5 -12 9 -10 4 3 5 15 3 28 -2 12 -2 16 2 10 3 -7 10 -13 15 -13 6 0
8 4 4 9 -3 5 -1 12 4 15 5 4 12 2 15 -2 5 -8 80 -9 96 -2 3 1 10 1 15 0 6 -1
27 -4 48 -6 29 -3 36 -1 31 8 -6 10 -4 10 7 2 21 -16 72 -17 63 -1 -5 9 -4 9
6 0 7 -6 20 -9 29 -6 9 4 13 3 10 -1 -4 -4 -17 -9 -29 -11 -12 -2 -25 -7 -29
-11 -3 -4 1 -5 10 -1 9 3 22 0 29 -6 9 -9 11 -9 7 -1 -8 14 23 29 32 16 9 -12
53 -13 45 -1 -3 6 -12 8 -20 5 -8 -3 -14 -1 -14 4 0 13 84 4 88 -10 2 -5 8
-10 13 -10 6 0 8 4 5 9 -3 4 4 8 17 7 12 0 26 -7 30 -14 5 -7 12 -10 17 -7 4
3 19 -7 32 -22 28 -34 56 -36 72 -4 9 15 16 20 20 12 4 -6 4 -16 0 -23 -5 -7
-3 -8 5 -4 7 5 10 15 7 23 -5 11 -2 13 9 9 9 -3 14 -2 11 3 -3 5 1 12 10 15 8
3 12 11 8 17 -4 8 -3 9 5 5 6 -4 9 -11 6 -15 -2 -5 8 -13 23 -20 24 -10 25
-10 10 2 -20 16 -24 37 -7 37 5 0 8 -4 5 -8 -2 -4 4 -14 15 -20 18 -12 19 -11
10 6 -9 16 -7 19 14 18 13 -1 28 -6 32 -10 4 -5 2 -6 -4 -2 -18 10 -16 1 3
-14 8 -8 14 -9 13 -4 -3 20 1 35 10 30 5 -4 11 -1 13 6 3 7 7 5 11 -6 4 -9 3
-15 -2 -11 -5 3 -12 2 -15 -3 -2 -4 8 -8 24 -7 19 0 25 3 19 11 -6 8 9 11 52
10 33 -1 63 2 65 6 3 4 14 2 25 -5 16 -10 22 -9 30 3 8 11 9 9 4 -10 -6 -23
-5 -24 8 -7 9 10 17 13 19 7 1 -5 13 -12 26 -15 13 -2 20 0 17 6 -4 5 -10 7
-15 4 -5 -3 -11 -1 -15 4 -3 6 3 8 15 6 28 -5 41 -15 35 -25 -3 -5 -1 -11 4
-15 6 -3 8 5 5 18 -3 22 -1 23 35 22 22 -1 46 -6 53 -11 21 -16 43 -10 41 11
-1 20 -1 20 13 1 13 -18 19 -15 15 7 -1 5 4 5 11 1 7 -5 18 -9 23 -10 6 0 16
-2 23 -2 9 -1 11 -9 7 -24 l-7 -23 16 22 17 22 24 -21 c13 -11 22 -26 19 -32
-3 -6 3 -1 13 10 17 19 21 20 29 6 9 -13 12 -13 19 -2 5 9 4 11 -3 6 -7 -4
-12 -3 -12 3 0 5 9 9 20 8 15 -1 19 -6 14 -22 -4 -15 -3 -17 5 -6 8 13 12 13
28 1 17 -14 17 -14 0 6 -15 18 -15 22 -4 27 8 3 23 4 33 2 11 -2 23 -4 27 -4
5 -1 5 -6 1 -13 -4 -7 -3 -8 4 -4 6 4 8 14 5 24 -6 15 -4 15 9 4 14 -11 20
-10 36 4 11 9 18 23 15 30 -3 8 2 15 11 15 37 3 41 4 41 14 0 6 5 17 10 25 11
18 14 51 4 45 -14 -9 -18 25 -4 39 8 8 15 21 15 29 0 22 11 27 34 16 21 -10
21 -10 1 6 -11 8 -25 13 -32 11 -21 -8 -15 2 8 15 17 9 20 8 14 -3 -4 -7 3 -2
14 12 23 28 26 40 11 40 -5 0 -9 -5 -7 -11 1 -6 -5 -14 -13 -16 -10 -3 -11 -2
-4 4 6 4 10 15 9 25 -2 12 3 15 24 13 14 -2 20 -2 14 1 -16 7 -17 54 -2 54 5
0 7 -5 3 -12 -4 -7 -3 -8 5 -4 6 4 8 12 5 18 -4 6 1 17 10 23 15 11 15 13 1
19 -11 4 -14 2 -9 -6 5 -7 3 -8 -6 -3 -8 5 -11 4 -6 -3 3 -6 2 -13 -3 -16 -5
-4 -8 2 -6 11 2 10 4 18 5 18 1 0 4 13 6 29 3 18 0 32 -8 37 -7 5 -8 9 -3 9 6
0 11 9 12 20 1 13 -2 18 -10 13 -7 -4 -6 0 2 10 12 15 11 17 -3 17 -9 0 -16 4
-16 8 0 5 -7 9 -15 9 -8 0 -12 -4 -10 -8 3 -3 -4 -9 -15 -12 -13 -3 -18 -1
-14 6 3 7 -1 4 -9 -6 -14 -17 -16 -17 -30 3 -11 16 -16 18 -20 8 -4 -9 -6 -9
-6 -1 -1 7 -8 10 -16 7 -8 -4 -15 -1 -15 6 0 6 4 9 8 6 4 -2 14 0 22 5 13 9
13 10 0 8 -37 -4 -52 1 -47 16 4 8 2 17 -4 20 -5 4 -7 10 -4 15 3 5 -2 16 -11
24 -8 9 -12 16 -8 16 5 0 3 5 -3 11 -9 9 -6 17 8 32 26 28 24 33 -13 32 -18
-1 -37 1 -43 4 -22 12 -108 11 -124 -1 -14 -11 -14 -11 -4 3 7 9 9 20 5 24 -4
5 -1 5 7 0 10 -6 12 -4 7 4 -6 9 -11 9 -21 1 -15 -13 -30 3 -19 21 4 8 0 9
-15 4 -15 -4 -21 -2 -21 9 0 8 -4 17 -9 20 -5 4 -7 -4 -4 -16 5 -22 5 -22 -9
-4 -12 15 -17 16 -23 6 -6 -9 -4 -11 6 -5 8 5 11 4 6 0 -10 -12 -47 -14 -47
-3 0 4 5 8 11 8 5 0 7 5 4 10 -4 6 -15 1 -26 -12 -12 -13 -18 -18 -15 -12 3 7
-1 15 -10 18 -9 3 -12 11 -8 18 6 10 5 11 -8 1 -8 -7 -18 -10 -21 -6 -4 3 -7
1 -7 -6 0 -6 7 -11 16 -9 10 2 19 -2 21 -8 5 -14 -29 -13 -39 0 -4 6 -14 4
-24 -5 -11 -9 -15 -9 -10 -1 5 8 -1 12 -18 12 -14 0 -26 4 -26 10 0 5 -9 2
-20 -7 -21 -18 -54 -27 -44 -12 3 5 11 6 17 2 7 -4 6 0 -2 10 -15 19 -26 23
-15 5 5 -7 2 -9 -9 -5 -12 4 -14 2 -10 -10 4 -10 2 -14 -5 -9 -6 3 -16 -2 -22
-11 -9 -15 -10 -14 -5 7 6 23 5 24 -6 5 -16 -26 -28 -34 -48 -30 -9 2 -19 4
-23 4 -5 1 -8 11 -8 24 0 12 -4 18 -8 12 -4 -5 -18 -11 -31 -13 -20 -2 -22 0
-11 13 7 8 16 13 20 10 5 -3 11 -1 14 4 7 10 -20 9 -30 -2 -4 -4 -20 -7 -35
-7 -15 0 -30 -4 -33 -9 -7 -10 -56 9 -56 22 0 5 4 5 10 2 18 -11 49 -14 55 -5
3 5 -4 7 -15 5 -11 -2 -26 2 -33 9 -10 10 -15 10 -24 1 -7 -7 -9 -17 -5 -21 4
-5 0 -3 -8 4 -13 11 -13 14 0 23 12 9 12 10 -3 5 -10 -3 -21 -6 -23 -6 -3 0
-2 -5 2 -11 5 -8 2 -9 -11 -2 -10 6 -27 8 -39 6 -17 -4 -18 -3 -6 6 20 14 0
14 -37 0 -15 -5 -25 -7 -21 -3 4 3 1 13 -7 20 -18 18 -31 18 -16 0 9 -11 8
-15 -4 -20 -9 -3 -14 -2 -11 3 8 12 -20 22 -41 14 -12 -5 -14 -3 -8 8 8 12 6
12 -8 0 -15 -12 -21 -9 -18 12 1 9 -4 9 -12 0z m59 -35 c-10 -6 -22 -6 -26 -2
-5 5 3 10 18 11 22 1 24 0 8 -9z m598 -36 c3 -5 -1 -9 -9 -9 -8 0 -12 4 -9 9
3 4 7 8 9 8 2 0 6 -4 9 -8z m-1451 -45 c7 3 9 2 4 -2 -4 -5 -16 -9 -27 -10
-16 -1 -17 1 -8 13 8 9 14 10 16 3 2 -6 9 -8 15 -4z m1932 -126 c3 -5 0 -13
-6 -17 -7 -4 -9 -3 -5 4 3 5 0 13 -6 15 -9 4 -10 6 -1 6 6 1 14 -3 18 -8z m12
-37 c-3 -3 -12 -4 -19 -1 -8 3 -5 6 6 6 11 1 17 -2 13 -5z m98 -524 c-8 -9
-12 -20 -8 -24 4 -4 0 -4 -10 -1 -15 6 -15 9 -2 22 9 8 13 19 10 24 -4 5 1 6
10 3 14 -6 14 -8 0 -24z m-460 -80 c8 -12 -23 -6 -37 8 -8 8 -5 9 11 5 12 -3
24 -9 26 -13z m389 6 c-10 -8 -21 -12 -24 -10 -5 6 21 24 34 24 6 0 1 -6 -10
-14z m-204 -37 c0 -6 -4 -7 -10 -4 -5 3 -10 11 -10 16 0 6 5 7 10 4 6 -3 10
-11 10 -16z m-1875 1 c3 -6 -1 -7 -9 -4 -18 7 -21 14 -7 14 6 0 13 -4 16 -10z
m1028 -20 c-3 -11 -9 -17 -15 -14 -5 3 -4 12 3 20 16 19 18 18 12 -6z"/>
<path d="M1436 1766 c6 -15 4 -17 -6 -11 -9 6 -11 4 -5 -4 5 -9 10 -10 18 -2
8 8 7 14 -2 24 -10 10 -11 8 -5 -7z"/>
<path d="M478 1738 c-9 -5 -6 -7 9 -5 12 2 25 6 28 8 8 9 -23 6 -37 -3z"/>
<path d="M790 1743 c0 -6 5 -15 10 -18 6 -4 8 -11 5 -16 -10 -15 2 -10 16 8 8
10 9 14 2 10 -7 -4 -16 0 -22 10 -6 10 -11 13 -11 6z"/>
<path d="M737 1733 c-10 -9 -9 -33 1 -33 4 0 8 9 8 20 0 23 0 22 -9 13z"/>
<path d="M1036 1727 c3 -10 9 -15 12 -12 3 3 0 11 -7 18 -10 9 -11 8 -5 -6z"/>
<path d="M906 1717 c3 -10 9 -15 12 -12 3 3 0 11 -7 18 -10 9 -11 8 -5 -6z"/>
<path d="M1916 1718 c3 -5 10 -6 15 -3 13 9 11 12 -6 12 -8 0 -12 -4 -9 -9z"/>
<path d="M1704 1694 c9 -6 14 -14 11 -17 -3 -4 -2 -5 2 -2 15 12 10 31 -9 31
-17 0 -17 -2 -4 -12z"/>
<path d="M2196 1677 c3 -10 9 -15 12 -12 3 3 0 11 -7 18 -10 9 -11 8 -5 -6z"/>
<path d="M278 1668 c14 -17 52 -21 52 -5 0 5 -7 6 -16 3 -9 -4 -24 -1 -33 6
-14 11 -14 11 -3 -4z"/>
<path d="M340 1661 c0 -6 4 -13 10 -16 6 -3 7 1 4 9 -7 18 -14 21 -14 7z"/>
<path d="M2266 1658 c3 -5 9 -7 12 -4 3 3 11 1 18 -5 13 -10 32 6 20 18 -3 4
-6 1 -6 -6 0 -7 -5 -9 -12 -4 -19 11 -39 13 -32 1z"/>
<path d="M2334 1658 c-4 -5 -3 -12 0 -15 3 -4 6 -1 6 6 0 7 4 10 9 6 5 -3 12
-2 15 3 3 5 -2 9 -10 9 -8 0 -17 -4 -20 -9z"/>
<path d="M2351 1585 c0 -5 6 -19 14 -29 8 -11 15 -15 15 -10 0 6 -7 19 -15 30
-8 10 -14 15 -14 9z"/>
<path d="M213 1475 c0 -8 4 -12 9 -9 5 3 6 10 3 15 -9 13 -12 11 -12 -6z"/>
<path d="M2470 1460 c0 -6 7 -10 15 -10 8 0 15 2 15 4 0 2 -7 6 -15 10 -8 3
-15 1 -15 -4z"/>
<path d="M146 1451 c-4 -5 -2 -12 3 -15 5 -4 12 -2 15 3 4 5 2 12 -3 15 -5 4
-12 2 -15 -3z"/>
<path d="M2450 1445 c0 -8 4 -15 10 -15 5 0 7 7 4 15 -4 8 -8 15 -10 15 -2 0
-4 -7 -4 -15z"/>
<path d="M35 1421 c-3 -5 -2 -12 3 -15 5 -3 9 1 9 9 0 17 -3 19 -12 6z"/>
<path d="M2573 1373 c0 -9 4 -10 14 -2 7 6 13 12 13 14 0 1 -6 2 -13 2 -8 0
-14 -6 -14 -14z"/>
<path d="M2575 1320 c-3 -6 1 -7 9 -4 18 7 21 14 7 14 -6 0 -13 -4 -16 -10z"/>
<path d="M19 1308 c-5 -18 -2 -55 4 -51 5 3 7 14 4 24 -3 11 1 20 12 22 14 4
14 5 -1 6 -10 0 -18 0 -19 -1z"/>
<path d="M70 1160 c-9 -6 -10 -10 -3 -10 6 0 15 5 18 10 8 12 4 12 -15 0z"/>
<path d="M114 1095 c-7 -17 12 -45 30 -44 7 0 6 2 -2 6 -6 2 -9 10 -6 15 5 7
2 8 -6 3 -10 -6 -12 -3 -8 13 7 25 0 30 -8 7z"/>
<path d="M2475 1040 c-2 -3 5 -7 16 -7 10 -1 19 2 19 6 0 9 -29 10 -35 1z"/>
<path d="M554 889 c-3 -5 -10 -7 -15 -4 -5 4 -9 1 -9 -4 0 -14 13 -14 28 1 9
9 12 9 12 -1 0 -14 20 -11 23 3 3 12 -32 16 -39 5z"/>
<path d="M655 889 c-10 -15 3 -25 16 -12 7 7 7 13 1 17 -6 3 -14 1 -17 -5z"/>
<path d="M730 896 c0 -2 8 -10 18 -17 15 -13 16 -12 3 4 -13 16 -21 21 -21 13z"/>
<path d="M834 888 c-4 -6 -3 -8 4 -4 6 3 13 2 17 -4 9 -14 35 -13 35 2 0 6 -3
8 -6 5 -4 -3 -15 -2 -25 3 -12 7 -20 6 -25 -2z"/>
<path d="M1725 890 c-3 -5 -5 -10 -3 -11 19 -4 51 -9 47 -6 -2 1 -11 8 -21 15
-11 9 -18 10 -23 2z"/>
<path d="M500 880 c-9 -6 -10 -10 -3 -10 6 0 15 5 18 10 8 12 4 12 -15 0z"/>
<path d="M610 878 c0 -4 4 -8 9 -8 6 0 12 4 15 8 3 5 -1 9 -9 9 -8 0 -15 -4
-15 -9z"/>
<path d="M773 873 c0 -9 4 -10 14 -2 10 9 18 8 31 -2 15 -13 16 -12 4 3 -15
19 -49 20 -49 1z"/>
<path d="M936 882 c-3 -5 1 -9 9 -9 8 0 12 4 9 9 -3 4 -7 8 -9 8 -2 0 -6 -4
-9 -8z"/>
<path d="M971 874 c0 -11 3 -14 6 -6 3 7 2 16 -1 19 -3 4 -6 -2 -5 -13z"/>
<path d="M1134 879 c-4 -7 -3 -9 4 -5 5 3 13 0 15 -6 4 -9 6 -10 6 -1 1 17
-16 25 -25 12z"/>
<path d="M1655 879 c7 -11 35 -12 35 -1 0 4 -9 8 -20 9 -11 1 -18 -2 -15 -8z"/>
<path d="M1913 875 c0 -8 4 -12 9 -9 4 3 8 9 8 15 0 5 -4 9 -8 9 -5 0 -9 -7
-9 -15z"/>
<path d="M2070 880 c0 -5 5 -10 10 -10 6 0 10 5 10 10 0 6 -4 10 -10 10 -5 0
-10 -4 -10 -10z"/>
<path d="M1214 866 c11 -9 14 -16 8 -16 -7 0 -12 -5 -12 -12 0 -9 3 -9 12 0 8
8 19 6 42 -11 l30 -21 -17 24 c-10 14 -21 25 -25 25 -4 1 -18 6 -32 13 -23 12
-24 12 -6 -2z"/>
<path d="M2130 860 c0 -5 5 -10 11 -10 5 0 7 5 4 10 -3 6 -8 10 -11 10 -2 0
-4 -4 -4 -10z"/>
<path d="M2295 860 c3 -5 14 -10 23 -10 15 0 15 2 2 10 -20 13 -33 13 -25 0z"/>
</g>
</svg>
