<?xml version="1.0" standalone="no"?>
<!DOCTYPE svg PUBLIC "-//W3C//DTD SVG 20010904//EN"
 "http://www.w3.org/TR/2001/REC-SVG-20010904/DTD/svg10.dtd">
<svg version="1.0" xmlns="http://www.w3.org/2000/svg"
 width="260.000000pt" height="260.000000pt" viewBox="0 0 260.000000 260.000000"
 preserveAspectRatio="xMidYMid meet">
<metadata>
Created by potrace 1.11, written by Peter Selinger 2001-2013
</metadata>
<g transform="translate(0.000000,260.000000) scale(0.100000,-0.100000)"
fill="#000000" stroke="none">
<path d="M530 2169 l0 -219 280 0 280 0 0 -200 0 -201 -224 1 c-158 1 -232 -2
-248 -11 -85 -44 -357 -211 -361 -221 -5 -15 68 -124 97 -144 17 -12 24 -11
50 5 17 10 51 30 76 43 25 14 71 40 103 57 l57 33 0 -371 0 -371 130 0 130 0
0 -180 c0 -212 -17 -192 165 -188 l120 3 3 173 2 172 130 0 130 0 0 -175 0
-175 134 0 c74 0 141 3 150 6 14 5 16 30 16 170 l0 163 108 3 107 3 3 378 c2
343 4 379 20 395 9 10 44 49 77 87 33 37 108 123 167 189 59 67 107 129 108
138 0 25 -98 120 -120 116 -10 -2 -84 -67 -164 -145 l-145 -142 -118 -6 c-65
-3 -171 -7 -235 -10 l-118 -5 0 210 0 210 258 -3 c147 -2 269 0 285 5 l27 10
0 186 c0 103 -4 192 -8 199 -5 8 -191 13 -718 17 -391 4 -720 8 -732 11 l-22
4 0 -220z m1263 171 l187 0 0 -175 0 -175 -47 -1 c-27 -1 -154 -2 -283 -3
l-235 -1 -3 -217 -2 -218 -145 0 -145 0 -2 213 -3 212 -277 3 -278 2 0 185 0
185 523 -5 c287 -2 606 -4 710 -5z m477 -565 l44 -45 -30 -32 c-42 -46 -40
-44 -184 -207 -73 -83 -137 -149 -144 -148 -8 1 -12 -102 -14 -385 l-2 -387
-108 -3 -107 -3 -3 -168 -2 -167 -120 0 -120 0 -2 173 -3 172 -155 0 -155 0
-3 -173 -2 -172 -115 0 -115 0 -2 183 -3 182 -127 3 -128 3 0 379 c0 393 -1
399 -39 366 -26 -22 -253 -147 -262 -144 -4 2 -24 25 -43 53 -28 39 -33 52
-23 61 6 6 86 55 177 108 l165 97 525 -2 c514 -2 730 4 760 22 8 4 76 69 150
143 74 74 137 135 140 135 3 1 26 -19 50 -44z"/>
<path d="M835 2283 c-41 -8 -76 -46 -82 -90 -10 -73 3 -113 42 -129 41 -17 90
-18 133 -3 38 13 57 56 56 128 -1 46 -5 58 -28 78 -26 22 -65 27 -121 16z"/>
<path d="M1556 2275 c-21 -7 -45 -20 -53 -28 -20 -20 -26 -77 -13 -126 9 -34
18 -45 45 -57 41 -17 90 -18 133 -3 41 14 56 54 49 127 -10 93 -63 122 -161
87z"/>
<path d="M1308 1356 c-25 -24 -42 -119 -27 -147 12 -22 49 -25 49 -4 0 9 -6
12 -15 9 -19 -8 -19 0 1 38 27 53 33 85 20 103 -11 16 -14 16 -28 1z m10 -56
c-6 -23 -13 -39 -16 -36 -7 8 8 76 17 76 5 0 4 -18 -1 -40z"/>
<path d="M952 1330 c-15 -15 -22 -33 -22 -60 0 -30 -5 -40 -20 -45 -11 -3 -20
-11 -20 -16 0 -16 27 -21 49 -10 11 6 22 7 25 2 3 -5 33 -9 67 -8 55 0 62 3
70 24 6 16 5 31 -1 44 -18 33 -52 22 -69 -23 -9 -23 -13 -25 -43 -19 -31 7
-33 9 -31 45 2 40 17 66 39 66 8 0 14 -9 14 -20 0 -21 15 -27 25 -10 10 17
-15 50 -38 50 -13 0 -33 -9 -45 -20z m128 -95 c0 -14 -4 -25 -9 -25 -12 0 -19
21 -13 38 8 21 22 13 22 -13z"/>
<path d="M1120 1241 c0 -22 5 -43 12 -47 14 -9 58 43 58 69 0 27 -14 20 -30
-15 l-15 -33 -3 33 c-5 45 -22 40 -22 -7z"/>
<path d="M1213 1272 c-17 -10 -23 -54 -11 -69 14 -18 43 -16 59 3 11 13 9 15
-12 11 -13 -2 -19 -2 -12 0 15 5 26 39 18 53 -7 12 -25 13 -42 2z m27 -21 c0
-6 -4 -13 -10 -16 -5 -3 -10 1 -10 9 0 9 5 16 10 16 6 0 10 -4 10 -9z"/>
<path d="M1344 1246 c-7 -40 2 -60 23 -52 8 4 3 -7 -11 -25 -30 -35 -31 -42
-13 -57 27 -22 51 19 63 105 3 27 8 51 11 56 2 4 -1 7 -7 7 -6 0 -16 -13 -21
-30 -13 -35 -28 -32 -21 5 2 14 0 25 -6 25 -6 0 -14 -15 -18 -34z m29 -96 c-5
-19 -23 -39 -23 -25 0 9 20 45 24 45 2 0 2 -9 -1 -20z"/>
<path d="M1216 1134 c-9 -8 -16 -24 -16 -35 0 -11 -10 -30 -23 -42 -49 -46
-44 -87 9 -85 27 1 33 5 33 22 0 12 6 39 15 61 26 69 16 114 -18 79z m4 -71
c-11 -17 -11 -17 -6 0 3 10 7 28 7 40 2 22 2 22 6 0 2 -12 -1 -30 -7 -40z
m-30 -48 c0 -14 -4 -25 -10 -25 -11 0 -14 33 -3 43 11 11 13 8 13 -18z"/>
<path d="M964 1114 c-47 -23 -67 -80 -44 -125 11 -20 54 -26 65 -9 5 7 11 8
19 1 6 -5 26 -9 44 -9 25 1 34 6 38 25 8 32 22 29 16 -3 -3 -20 -1 -25 9 -22
14 5 26 88 13 88 -4 0 -16 -8 -27 -17 -19 -17 -20 -17 -14 0 4 9 2 17 -4 17
-11 0 -29 -41 -23 -51 2 -4 -3 -9 -11 -13 -17 -6 -19 1 -15 62 2 55 -15 54
-29 -2 -17 -70 -61 -89 -61 -27 0 43 32 76 72 76 18 0 35 5 38 10 8 17 -53 16
-86 -1z"/>
<path d="M1413 918 c-6 -7 -15 -27 -19 -43 -4 -16 -18 -38 -31 -49 -17 -13
-23 -26 -21 -45 3 -23 8 -26 41 -28 33 -2 37 0 32 17 -3 11 1 32 9 47 16 28
16 28 12 3 -2 -14 0 -35 5 -47 9 -25 44 -31 52 -9 4 10 0 12 -14 9 -24 -7 -24
2 2 43 11 19 18 34 15 34 -3 0 -1 12 4 26 7 18 7 31 -1 40 -13 16 -39 7 -39
-13 0 -11 -5 -9 -18 7 -15 18 -20 20 -29 8z m12 -58 c-4 -17 -9 -29 -12 -26
-3 2 -2 19 2 36 4 17 9 29 12 26 3 -2 2 -19 -2 -36z m59 13 c-4 -16 -10 -35
-15 -43 -7 -12 -8 -11 -9 5 0 31 11 65 21 65 5 0 6 -12 3 -27z m-96 -80 c-2
-9 -8 -18 -15 -20 -9 -3 -11 11 -4 35 1 1 6 2 12 2 6 0 9 -8 7 -17z"/>
<path d="M955 903 c-26 -6 -45 -31 -38 -49 8 -20 23 -17 23 5 0 10 7 21 15 25
19 7 21 -34 3 -52 -10 -10 -10 -14 0 -21 9 -6 9 -11 -2 -27 -13 -16 -18 -17
-35 -6 -17 10 -21 10 -21 -2 0 -15 21 -26 52 -26 13 0 24 10 31 29 7 18 21 32
35 36 24 6 22 20 -1 20 -7 0 -13 12 -15 26 -3 24 0 26 32 24 25 -2 36 1 36 11
0 14 -68 18 -115 7z"/>
<path d="M1145 871 c-7 -12 12 -24 25 -16 11 7 4 25 -10 25 -5 0 -11 -4 -15
-9z"/>
<path d="M1045 810 c-3 -16 -2 -37 3 -46 8 -15 12 -13 26 14 17 33 28 42 24
20 -4 -16 24 -17 29 -3 2 6 -3 19 -10 29 -13 17 -14 17 -30 1 -15 -14 -17 -15
-17 -1 0 27 -18 17 -25 -14z"/>
<path d="M1147 833 c-3 -5 -8 -25 -12 -46 -8 -44 11 -53 21 -9 3 15 7 32 9 39
5 14 -11 27 -18 16z"/>
<path d="M1185 824 c-34 -34 4 -92 45 -67 12 8 21 9 25 3 10 -17 21 -11 32 18
l11 27 1 -27 c1 -28 21 -41 21 -14 0 7 3 28 6 45 7 34 -5 41 -30 15 -15 -14
-16 -14 -16 2 0 13 -3 14 -14 5 -8 -7 -13 -21 -11 -31 2 -12 -4 -20 -18 -24
-37 -10 -43 -7 -19 10 26 18 29 39 6 48 -21 8 -20 8 -39 -10z m35 -14 c0 -5
-7 -10 -16 -10 -8 0 -12 5 -9 10 3 6 10 10 16 10 5 0 9 -4 9 -10z"/>
<path d="M1510 821 c-14 -28 -6 -66 14 -65 12 1 10 -5 -9 -28 -29 -34 -30 -41
-12 -57 23 -18 49 21 62 94 13 69 2 99 -16 46 -14 -40 -27 -40 -21 -1 5 34 -3
39 -18 11z m23 -111 c-5 -19 -23 -39 -23 -25 0 9 20 45 24 45 2 0 2 -9 -1 -20z"/>
</g>
</svg>
